# xmcd CD database file
#
# Track frame offsets:
#	150
#	13107
#	25661
#	42519
#	56393
#	75935
#	91429
#	106773
#	119106
#	131595
#	146077
#	163438
#	178112
#	194381
#	206300
#	218099
#	235061
#	250130
#	263426
#	276340
#	290182
#	300593
#	315918
#	331850
#
# Disc length: 4634 seconds
#
# Revision: 0
# Processed by: cddbd v1.5.2PL0 Copyright (c) Steve Scherf et al.
# Submitted via: CDex 1.70beta2
#
DISCID=56121818
DTITLE=Various Artist - Country Musik
DYEAR=1900
DGENRE=Country
TTITLE0=Country LIne Dance/Can't Break It To My Heat
TTITLE1=Alan Jackson/Who I Am
TTITLE2=Nitty Gritty Dirt Band/Cadillac Ranch
TTITLE3=Shania Twain/No One Needs To Know
TTITLE4=The Mavericks/All You Ever Do
TTITLE5=Country Line Dance/Reckless
TTITLE6=Billy Ray Cyrus/Achy Break Heart
TTITLE7=Country Line Dance/Wild One
TTITLE8=Country Line Dance/Live Until I Die
TTITLE9=Rednex/Cotton Eyed Joe
TTITLE10=Nitty Gritty Dirt Band/Warkin' Man
TTITLE11=Nitty Gritty Dirt Band/Corduroy Road
TTITLE12=The Line Dance Album/It's My Turn To Sing With Willie
TTITLE13=Alan Jackson/Little Billy
TTITLE14=Alan Jackson/Buicks On The Moon
TTITLE15=Wynonna/Tell Me Why
TTITLE16=The Bellamy Brothers/Dancin' Cowboys
TTITLE17=Red Hot and Country/ Teach Your Children
TTITLE18=Red Hot and Country/Close Up The Honky
TTITLE19=Clint Black/A Better Man
TTITLE20=George Strait/Heartland
TTITLE21=Country Line Dance/I Don't Call Him Daddy
TTITLE22=Randy Travis/Forever And Ever: Amen
TTITLE23=Toby Keth/Should've Been A Cowboy
EXTD=
EXTT0=
EXTT1=
EXTT2=
EXTT3=
EXTT4=
EXTT5=
EXTT6=
EXTT7=
EXTT8=
EXTT9=
EXTT10=
EXTT11=
EXTT12=
EXTT13=
EXTT14=
EXTT15=
EXTT16=
EXTT17=
EXTT18=
EXTT19=
EXTT20=
EXTT21=
EXTT22=
EXTT23=
PLAYORDER=
